{
  "source": "C:\\Users\\Peter\\Desktop\\stuff\\MIUN\\quantitative_research\\video_compression\\videos\\BVI-HD\\BVI-HD_CDVL_videos\\ORIG\\FishAndRock_1920x1080_30fps.mp4",
  "output": "C:\\Users\\Peter\\Desktop\\stuff\\MIUN\\quantitative_research\\video_compression\\compressed_videos\\BVI-HD\\hevc\\2.5\\FishAndRock_1920x1080_30fps_hevc.mp4",
  "codec": "hevc",
  "ok": "Input #0, mov,mp4,m4a,3gp,3g2,mj2, from 'C:\\Users\\Peter\\Desktop\\stuff\\MIUN\\quantitative_research\\video_compression\\videos\\BVI-HD\\BVI-HD_CDVL_videos\\ORIG\\FishAndRock_1920x1080_30fps.mp4':\n  Metadata:\n    major_brand     : isom\n    minor_version   : 512\n    compatible_brands: isomiso2avc1mp41\n    encoder         : Lavf54.28.101\n  Duration: 00:00:05.00, start: 0.000000, bitrate: 251564 kb/s\n  Stream #0:0[0x1](und): Video: h264 (High 4:4:4 Predictive) (avc1 / 0x31637661), yuv420p(progressive), 1920x1080, 251561 kb/s, 30 fps, 30 tbr, 30 tbn (default)\n    Metadata:\n      handler_name    : VideoHandler\n      vendor_id       : [0][0][0][0]\n[out#0/mp4 @ 000001c9ced01700] Codec AVOption b:a (set bitrate (in bits/s)) has not been used for any stream. The most likely reason is either wrong type (e.g. a video option with no video streams) or that it is a private option of some decoder which was not actually used for any stream.\nStream mapping:\n  Stream #0:0 -> #0:0 (h264 (native) -> hevc (libx265))\nPress [q] to stop, [?] for help\n[libx265 @ 000001c9cf7a0180] Unknown option: \"aq-mode.\nx265 [info]: HEVC encoder version 4.1+190-8f11c33ac\nx265 [info]: build info [Windows][GCC 15.1.0][64 bit] 10bit\nx265 [info]: using cpu capabilities: MMX2 SSE2Fast LZCNT SSSE3 SSE4.2 AVX FMA3 BMI2 AVX2\nx265 [info]: Main 10 profile, Level-4 (Main tier)\nx265 [info]: Thread pool created using 12 threads\nx265 [info]: Slices                              : 1\nx265 [info]: frame threads / pool features       : 3 / wpp(17 rows)\nx265 [info]: Coding QT: max CU size, min CU size : 64 / 8\nx265 [info]: Residual QT: max TU size, max depth : 32 / 1 inter / 1 intra\nx265 [info]: ME / range / subpel / merge         : star / 57 / 3 / 3\nx265 [info]: Keyframe min / max / scenecut / bias  : 25 / 250 / 40 / 5.00 \nx265 [info]: Lookahead / bframes / badapt        : 25 / 4 / 2\nx265 [info]: b-pyramid / weightp / weightb       : 1 / 1 / 0\nx265 [info]: References / ref-limit  cu / depth  : 4 / on / on\nx265 [info]: AQ: mode / str / qg-size / cu-tree  : 2 / 1.0 / 32 / 1\nx265 [info]: Rate Control / qCompress            : ABR-2500 kbps / 0.60\nx265 [info]: VBV/HRD buffer / max-rate / init    : 2500 / 2500 / 0.750\nx265 [info]: tools: rect limit-modes rd=4 psy-rd=2.00 rdoq=2 psy-rdoq=1.00\nx265 [info]: tools: rskip mode=1 signhide tmvp strong-intra-smoothing lslices=4\nx265 [info]: tools: deblock sao dhdr10-info\nOutput #0, mp4, to 'C:\\Users\\Peter\\Desktop\\stuff\\MIUN\\quantitative_research\\video_compression\\compressed_videos\\BVI-HD\\hevc\\2.5\\FishAndRock_1920x1080_30fps_hevc.mp4':\n  Metadata:\n    major_brand     : isom\n    minor_version   : 512\n    compatible_brands: isomiso2avc1mp41\n    encoder         : Lavf62.3.100\n  Stream #0:0(und): Video: hevc (hev1 / 0x31766568), yuv420p10le(tv, progressive), 1920x1080, q=2-31, 2500 kb/s, 30 fps, 15360 tbn (default)\n    Metadata:\n      encoder         : Lavc62.11.100 libx265\n      handler_name    : VideoHandler\n      vendor_id       : [0][0][0][0]\n    Side data:\n      cpb: bitrate max/min/avg: 2500000/0/2500000 buffer size: 2500000 vbv_delay: N/A\nframe=    0 fps=0.0 q=0.0 size=       0KiB time=N/A bitrate=N/A speed=N/A elapsed=0:00:00.51    \nframe=    0 fps=0.0 q=0.0 size=       0KiB time=N/A bitrate=N/A speed=N/A elapsed=0:00:01.04    \nframe=    0 fps=0.0 q=0.0 size=       0KiB time=N/A bitrate=N/A speed=N/A elapsed=0:00:01.55    \nframe=    0 fps=0.0 q=0.0 size=       0KiB time=N/A bitrate=N/A speed=N/A elapsed=0:00:02.07    \nframe=    0 fps=0.0 q=0.0 size=       0KiB time=N/A bitrate=N/A speed=N/A elapsed=0:00:02.59    \nframe=    0 fps=0.0 q=0.0 size=       0KiB time=N/A bitrate=N/A speed=N/A elapsed=0:00:03.10    \nframe=    0 fps=0.0 q=0.0 size=       0KiB time=N/A bitrate=N/A speed=N/A elapsed=0:00:03.62    \nframe=    0 fps=0.0 q=0.0 size=       0KiB time=N/A bitrate=N/A speed=N/A elapsed=0:00:04.14    \nframe=    0 fps=0.0 q=0.0 size=       0KiB time=N/A bitrate=N/A speed=N/A elapsed=0:00:04.64    \nframe=    1 fps=0.2 q=34.1 size=       0KiB time=-00:00:00.03 bitrate=N/A speed=N/A elapsed=0:00:05.16    \nframe=    1 fps=0.2 q=34.1 size=       0KiB time=-00:00:00.03 bitrate=N/A speed=N/A elapsed=0:00:05.69    \nframe=    2 fps=0.3 q=37.8 size=       0KiB time=00:00:00.00 bitrate=N/A speed=   0x elapsed=0:00:06.20    \nframe=    3 fps=0.4 q=44.9 size=       0KiB time=00:00:00.03 bitrate=  10.6kbits/s speed=0.00496x elapsed=0:00:06.71    \nframe=    4 fps=0.6 q=34.8 size=       0KiB time=00:00:00.06 bitrate=   5.3kbits/s speed=0.00921x elapsed=0:00:07.23    \nframe=    5 fps=0.6 q=37.8 size=       0KiB time=00:00:00.10 bitrate=   3.5kbits/s speed=0.0129x elapsed=0:00:07.74    \nframe=    5 fps=0.6 q=37.8 size=       0KiB time=00:00:00.10 bitrate=   3.5kbits/s speed=0.0121x elapsed=0:00:08.26    \nframe=    6 fps=0.7 q=37.9 size=       0KiB time=00:00:00.13 bitrate=   2.6kbits/s speed=0.0152x elapsed=0:00:08.78    \nframe=    6 fps=0.6 q=37.9 size=       0KiB time=00:00:00.13 bitrate=   2.6kbits/s speed=0.0143x elapsed=0:00:09.30    \nframe=    7 fps=0.7 q=38.1 size=       0KiB time=00:00:00.16 bitrate=   2.1kbits/s speed=0.017x elapsed=0:00:09.82    \nframe=    8 fps=0.8 q=33.1 size=       0KiB time=00:00:00.20 bitrate=   1.8kbits/s speed=0.0193x elapsed=0:00:10.34    \nframe=    9 fps=0.8 q=34.2 size=       0KiB time=00:00:00.23 bitrate=   1.5kbits/s speed=0.0215x elapsed=0:00:10.86    \nframe=    9 fps=0.8 q=34.2 size=       0KiB time=00:00:00.23 bitrate=   1.5kbits/s speed=0.0205x elapsed=0:00:11.36    \nframe=    9 fps=0.8 q=34.2 size=       0KiB time=00:00:00.23 bitrate=   1.5kbits/s speed=0.0196x elapsed=0:00:11.89    \nframe=    9 fps=0.7 q=34.2 size=       0KiB time=00:00:00.23 bitrate=   1.5kbits/s speed=0.0188x elapsed=0:00:12.43    \nframe=    9 fps=0.7 q=34.2 size=       0KiB time=00:00:00.23 bitrate=   1.5kbits/s speed=0.018x elapsed=0:00:12.95    \nframe=   10 fps=0.7 q=35.5 size=       0KiB time=00:00:00.26 bitrate=   1.3kbits/s speed=0.0198x elapsed=0:00:13.47    \nframe=   10 fps=0.7 q=35.5 size=       0KiB time=00:00:00.26 bitrate=   1.3kbits/s speed=0.0191x elapsed=0:00:13.99    \nframe=   10 fps=0.7 q=35.5 size=       0KiB time=00:00:00.26 bitrate=   1.3kbits/s speed=0.0183x elapsed=0:00:14.54    \nframe=   11 fps=0.7 q=36.3 size=       0KiB time=00:00:00.30 bitrate=   1.2kbits/s speed=0.0199x elapsed=0:00:15.05    \nframe=   11 fps=0.7 q=36.3 size=       0KiB time=00:00:00.30 bitrate=   1.2kbits/s speed=0.0193x elapsed=0:00:15.57    \nframe=   11 fps=0.7 q=36.3 size=       0KiB time=00:00:00.30 bitrate=   1.2kbits/s speed=0.0186x elapsed=0:00:16.10    \nframe=   11 fps=0.7 q=36.3 size=       0KiB time=00:00:00.30 bitrate=   1.2kbits/s speed=0.018x elapsed=0:00:16.62    \nframe=   12 fps=0.7 q=30.7 size=       0KiB time=00:00:00.33 bitrate=   1.1kbits/s speed=0.0194x elapsed=0:00:17.14    \nframe=   12 fps=0.7 q=30.7 size=       0KiB time=00:00:00.33 bitrate=   1.1kbits/s speed=0.0189x elapsed=0:00:17.66    \nframe=   13 fps=0.7 q=35.7 size=       0KiB time=00:00:00.36 bitrate=   1.0kbits/s speed=0.0201x elapsed=0:00:18.19    \nframe=   13 fps=0.7 q=35.7 size=       0KiB time=00:00:00.36 bitrate=   1.0kbits/s speed=0.0196x elapsed=0:00:18.71    \nframe=   13 fps=0.7 q=35.7 size=       0KiB time=00:00:00.36 bitrate=   1.0kbits/s speed=0.0191x elapsed=0:00:19.24    \nframe=   13 fps=0.7 q=35.7 size=       0KiB time=00:00:00.36 bitrate=   1.0kbits/s speed=0.0185x elapsed=0:00:19.77    \nframe=   13 fps=0.6 q=35.7 size=       0KiB time=00:00:00.36 bitrate=   1.0kbits/s speed=0.018x elapsed=0:00:20.32    \nframe=   14 fps=0.7 q=36.2 size=       0KiB time=00:00:00.40 bitrate=   0.9kbits/s speed=0.0192x elapsed=0:00:20.85    \nframe=   14 fps=0.7 q=36.2 size=       0KiB time=00:00:00.40 bitrate=   0.9kbits/s speed=0.0187x elapsed=0:00:21.37    \nframe=   14 fps=0.6 q=36.2 size=       0KiB time=00:00:00.40 bitrate=   0.9kbits/s speed=0.0183x elapsed=0:00:21.88    \nframe=   15 fps=0.7 q=37.6 size=       0KiB time=00:00:00.43 bitrate=   0.8kbits/s speed=0.0193x elapsed=0:00:22.42    \nframe=   15 fps=0.7 q=37.6 size=       0KiB time=00:00:00.43 bitrate=   0.8kbits/s speed=0.0189x elapsed=0:00:22.93    \nframe=   15 fps=0.6 q=37.6 size=       0KiB time=00:00:00.43 bitrate=   0.8kbits/s speed=0.0185x elapsed=0:00:23.45    \nframe=   16 fps=0.7 q=30.6 size=       0KiB time=00:00:00.46 bitrate=   0.8kbits/s speed=0.0194x elapsed=0:00:24.00    \nframe=   17 fps=0.7 q=34.2 size=       0KiB time=00:00:00.50 bitrate=   0.7kbits/s speed=0.0204x elapsed=0:00:24.51    \nframe=   17 fps=0.7 q=34.2 size=       0KiB time=00:00:00.50 bitrate=   0.7kbits/s speed=0.02x elapsed=0:00:25.04    \nframe=   17 fps=0.7 q=34.2 size=       0KiB time=00:00:00.50 bitrate=   0.7kbits/s speed=0.0196x elapsed=0:00:25.56    \nframe=   17 fps=0.7 q=34.2 size=       0KiB time=00:00:00.50 bitrate=   0.7kbits/s speed=0.0192x elapsed=0:00:26.09    \nframe=   17 fps=0.6 q=34.2 size=       0KiB time=00:00:00.50 bitrate=   0.7kbits/s speed=0.0188x elapsed=0:00:26.61    \nframe=   18 fps=0.7 q=37.3 size=       0KiB time=00:00:00.53 bitrate=   0.7kbits/s speed=0.0197x elapsed=0:00:27.13    \nframe=   18 fps=0.7 q=37.3 size=       0KiB time=00:00:00.53 bitrate=   0.7kbits/s speed=0.0193x elapsed=0:00:27.65    \nframe=   18 fps=0.6 q=37.3 size=       0KiB time=00:00:00.53 bitrate=   0.7kbits/s speed=0.0189x elapsed=0:00:28.18    \nframe=   18 fps=0.6 q=37.3 size=       0KiB time=00:00:00.53 bitrate=   0.7kbits/s speed=0.0186x elapsed=0:00:28.69    \nframe=   19 fps=0.7 q=36.4 size=       0KiB time=00:00:00.56 bitrate=   0.6kbits/s speed=0.0194x elapsed=0:00:29.21    \nframe=   20 fps=0.7 q=30.7 size=       0KiB time=00:00:00.60 bitrate=   0.6kbits/s speed=0.0202x elapsed=0:00:29.72    \nframe=   20 fps=0.7 q=30.7 size=       0KiB time=00:00:00.60 bitrate=   0.6kbits/s speed=0.0198x elapsed=0:00:30.25    \nframe=   20 fps=0.6 q=30.7 size=       0KiB time=00:00:00.60 bitrate=   0.6kbits/s speed=0.0195x elapsed=0:00:30.80    \nframe=   20 fps=0.6 q=30.7 size=       0KiB time=00:00:00.60 bitrate=   0.6kbits/s speed=0.0192x elapsed=0:00:31.32    \nframe=   20 fps=0.6 q=30.7 size=       0KiB time=00:00:00.60 bitrate=   0.6kbits/s speed=0.0188x elapsed=0:00:31.87    \nframe=   21 fps=0.6 q=36.0 size=       0KiB time=00:00:00.63 bitrate=   0.6kbits/s speed=0.0196x elapsed=0:00:32.39    \nframe=   21 fps=0.6 q=36.0 size=       0KiB time=00:00:00.63 bitrate=   0.6kbits/s speed=0.0193x elapsed=0:00:32.89    \nframe=   22 fps=0.7 q=36.5 size=       0KiB time=00:00:00.66 bitrate=   0.5kbits/s speed=0.0199x elapsed=0:00:33.41    \nframe=   22 fps=0.6 q=36.5 size=       0KiB time=00:00:00.66 bitrate=   0.5kbits/s speed=0.0196x elapsed=0:00:33.94    \nframe=   22 fps=0.6 q=36.5 size=       0KiB time=00:00:00.66 bitrate=   0.5kbits/s speed=0.0194x elapsed=0:00:34.45    \nframe=   22 fps=0.6 q=36.5 size=       0KiB time=00:00:00.66 bitrate=   0.5kbits/s speed=0.0191x elapsed=0:00:34.98    \nframe=   23 fps=0.6 q=30.4 size=       0KiB time=00:00:00.70 bitrate=   0.5kbits/s speed=0.0197x elapsed=0:00:35.52    \nframe=   23 fps=0.6 q=30.4 size=       0KiB time=00:00:00.70 bitrate=   0.5kbits/s speed=0.0194x elapsed=0:00:36.02    \nframe=   24 fps=0.7 q=33.9 size=       0KiB time=00:00:00.73 bitrate=   0.5kbits/s speed=0.0201x elapsed=0:00:36.56    \nframe=   24 fps=0.6 q=33.9 size=       0KiB time=00:00:00.73 bitrate=   0.5kbits/s speed=0.0198x elapsed=0:00:37.09    \nframe=   24 fps=0.6 q=33.9 size=       0KiB time=00:00:00.73 bitrate=   0.5kbits/s speed=0.0195x elapsed=0:00:37.60    \nframe=   24 fps=0.6 q=33.9 size=       0KiB time=00:00:00.73 bitrate=   0.5kbits/s speed=0.0192x elapsed=0:00:38.12    \nframe=   24 fps=0.6 q=33.9 size=       0KiB time=00:00:00.73 bitrate=   0.5kbits/s speed=0.019x elapsed=0:00:38.67    \nframe=   25 fps=0.6 q=35.3 size=       0KiB time=00:00:00.76 bitrate=   0.5kbits/s speed=0.0195x elapsed=0:00:39.22    \nframe=   25 fps=0.6 q=35.3 size=       0KiB time=00:00:00.76 bitrate=   0.5kbits/s speed=0.0193x elapsed=0:00:39.74    \nframe=   25 fps=0.6 q=35.3 size=       0KiB time=00:00:00.76 bitrate=   0.5kbits/s speed=0.019x elapsed=0:00:40.26    \nframe=   26 fps=0.6 q=35.3 size=       0KiB time=00:00:00.80 bitrate=   0.4kbits/s speed=0.0196x elapsed=0:00:40.79    \nframe=   26 fps=0.6 q=35.3 size=       0KiB time=00:00:00.80 bitrate=   0.4kbits/s speed=0.0194x elapsed=0:00:41.33    \nframe=   26 fps=0.6 q=35.3 size=       0KiB time=00:00:00.80 bitrate=   0.4kbits/s speed=0.0191x elapsed=0:00:41.85    \nframe=   27 fps=0.6 q=29.5 size=       0KiB time=00:00:00.83 bitrate=   0.4kbits/s speed=0.0197x elapsed=0:00:42.38    \nframe=   27 fps=0.6 q=29.5 size=       0KiB time=00:00:00.83 bitrate=   0.4kbits/s speed=0.0194x elapsed=0:00:42.91    \nframe=   28 fps=0.6 q=33.5 size=     256KiB time=00:00:00.86 bitrate=2420.2kbits/s speed=0.02x elapsed=0:00:43.43    \nframe=   28 fps=0.6 q=33.5 size=     256KiB time=00:00:00.86 bitrate=2420.2kbits/s speed=0.0197x elapsed=0:00:43.95    \nframe=   28 fps=0.6 q=33.5 size=     256KiB time=00:00:00.86 bitrate=2420.2kbits/s speed=0.0195x elapsed=0:00:44.49    \nframe=   29 fps=0.6 q=34.9 size=     256KiB time=00:00:00.90 bitrate=2330.6kbits/s speed=0.02x elapsed=0:00:45.01    \nframe=   29 fps=0.6 q=34.9 size=     256KiB time=00:00:00.90 bitrate=2330.6kbits/s speed=0.0198x elapsed=0:00:45.54    \nframe=   29 fps=0.6 q=34.9 size=     256KiB time=00:00:00.90 bitrate=2330.6kbits/s speed=0.0195x elapsed=0:00:46.05    \nframe=   30 fps=0.6 q=35.3 size=     256KiB time=00:00:00.93 bitrate=2247.3kbits/s speed=0.02x elapsed=0:00:46.58    \nframe=   31 fps=0.7 q=29.4 size=     256KiB time=00:00:00.96 bitrate=2169.8kbits/s speed=0.0205x elapsed=0:00:47.10    \nframe=   32 fps=0.7 q=33.5 size=     256KiB time=00:00:01.00 bitrate=2097.5kbits/s speed=0.021x elapsed=0:00:47.61    \nframe=   32 fps=0.7 q=33.5 size=     256KiB time=00:00:01.00 bitrate=2097.5kbits/s speed=0.0208x elapsed=0:00:48.17    \nframe=   32 fps=0.7 q=33.5 size=     256KiB time=00:00:01.00 bitrate=2097.5kbits/s speed=0.0205x elapsed=0:00:48.71    \nframe=   32 fps=0.6 q=33.5 size=     256KiB time=00:00:01.00 bitrate=2097.5kbits/s speed=0.0203x elapsed=0:00:49.31    \nframe=   32 fps=0.6 q=33.5 size=     256KiB time=00:00:01.00 bitrate=2097.5kbits/s speed=0.0201x elapsed=0:00:49.85    \nframe=   33 fps=0.7 q=35.6 size=     256KiB time=00:00:01.03 bitrate=2029.8kbits/s speed=0.0205x elapsed=0:00:50.41    \nframe=   33 fps=0.6 q=35.6 size=     256KiB time=00:00:01.03 bitrate=2029.8kbits/s speed=0.0203x elapsed=0:00:50.94    \nframe=   33 fps=0.6 q=35.6 size=     256KiB time=00:00:01.03 bitrate=2029.8kbits/s speed=0.0201x elapsed=0:00:51.47    \nframe=   34 fps=0.7 q=35.2 size=     256KiB time=00:00:01.06 bitrate=1966.4kbits/s speed=0.0205x elapsed=0:00:51.99    \nframe=   34 fps=0.6 q=35.2 size=     256KiB time=00:00:01.06 bitrate=1966.4kbits/s speed=0.0203x elapsed=0:00:52.53    \nframe=   35 fps=0.7 q=29.1 size=     256KiB time=00:00:01.10 bitrate=1906.8kbits/s speed=0.0207x elapsed=0:00:53.06    \nframe=   35 fps=0.7 q=29.1 size=     256KiB time=00:00:01.10 bitrate=1906.8kbits/s speed=0.0205x elapsed=0:00:53.58    \nframe=   36 fps=0.7 q=32.7 size=     256KiB time=00:00:01.13 bitrate=1850.7kbits/s speed=0.021x elapsed=0:00:54.08    \nframe=   36 fps=0.7 q=32.7 size=     256KiB time=00:00:01.13 bitrate=1850.7kbits/s speed=0.0207x elapsed=0:00:54.62    \nframe=   37 fps=0.7 q=35.2 size=     256KiB time=00:00:01.16 bitrate=1797.9kbits/s speed=0.0212x elapsed=0:00:55.14    \nframe=   38 fps=0.7 q=29.4 size=     256KiB time=00:00:01.20 bitrate=1747.9kbits/s speed=0.0216x elapsed=0:00:55.66    \nframe=   39 fps=0.7 q=32.9 size=     256KiB time=00:00:01.23 bitrate=1700.7kbits/s speed=0.022x elapsed=0:00:56.18    \nframe=   39 fps=0.7 q=32.9 size=     256KiB time=00:00:01.23 bitrate=1700.7kbits/s speed=0.0218x elapsed=0:00:56.69    \nframe=   40 fps=0.7 q=35.3 size=     256KiB time=00:00:01.26 bitrate=1655.9kbits/s speed=0.0221x elapsed=0:00:57.21    \nframe=   40 fps=0.7 q=35.3 size=     256KiB time=00:00:01.26 bitrate=1655.9kbits/s speed=0.0219x elapsed=0:00:57.73    \nframe=   40 fps=0.7 q=35.3 size=     256KiB time=00:00:01.26 bitrate=1655.9kbits/s speed=0.0217x elapsed=0:00:58.25    \nframe=   41 fps=0.7 q=35.5 size=     256KiB time=00:00:01.30 bitrate=1613.5kbits/s speed=0.0221x elapsed=0:00:58.83    \nframe=   41 fps=0.7 q=35.5 size=     256KiB time=00:00:01.30 bitrate=1613.5kbits/s speed=0.0219x elapsed=0:00:59.38    \nframe=   41 fps=0.7 q=35.5 size=     256KiB time=00:00:01.30 bitrate=1613.5kbits/s speed=0.0217x elapsed=0:00:59.89    \nframe=   41 fps=0.7 q=35.5 size=     256KiB time=00:00:01.30 bitrate=1613.5kbits/s speed=0.0215x elapsed=0:01:00.42    \nframe=   41 fps=0.7 q=35.5 size=     256KiB time=00:00:01.30 bitrate=1613.5kbits/s speed=0.0213x elapsed=0:01:00.94    \nframe=   41 fps=0.7 q=35.5 size=     256KiB time=00:00:01.30 bitrate=1613.5kbits/s speed=0.0211x elapsed=0:01:01.47    \nframe=   41 fps=0.7 q=35.5 size=     256KiB time=00:00:01.30 bitrate=1613.5kbits/s speed=0.021x elapsed=0:01:01.99    \nframe=   42 fps=0.7 q=29.1 size=     256KiB time=00:00:01.33 bitrate=1573.1kbits/s speed=0.0213x elapsed=0:01:02.53    \nframe=   43 fps=0.7 q=32.4 size=     256KiB time=00:00:01.36 bitrate=1534.8kbits/s speed=0.0217x elapsed=0:01:03.06    \nframe=   43 fps=0.7 q=32.4 size=     256KiB time=00:00:01.36 bitrate=1534.8kbits/s speed=0.0215x elapsed=0:01:03.60    \nframe=   44 fps=0.7 q=35.2 size=     256KiB time=00:00:01.40 bitrate=1498.2kbits/s speed=0.0218x elapsed=0:01:04.12    \nframe=   44 fps=0.7 q=35.2 size=     256KiB time=00:00:01.40 bitrate=1498.2kbits/s speed=0.0217x elapsed=0:01:04.64    \nframe=   44 fps=0.7 q=35.2 size=     256KiB time=00:00:01.40 bitrate=1498.2kbits/s speed=0.0215x elapsed=0:01:05.17    \nframe=   44 fps=0.7 q=35.2 size=     256KiB time=00:00:01.40 bitrate=1498.2kbits/s speed=0.0213x elapsed=0:01:05.70    \nframe=   44 fps=0.7 q=35.2 size=     256KiB time=00:00:01.40 bitrate=1498.2kbits/s speed=0.0211x elapsed=0:01:06.22    \nframe=   45 fps=0.7 q=35.2 size=     256KiB time=00:00:01.43 bitrate=1463.4kbits/s speed=0.0215x elapsed=0:01:06.75    \nframe=   45 fps=0.7 q=35.2 size=     256KiB time=00:00:01.43 bitrate=1463.4kbits/s speed=0.0213x elapsed=0:01:07.27    \nframe=   45 fps=0.7 q=35.2 size=     256KiB time=00:00:01.43 bitrate=1463.4kbits/s speed=0.0211x elapsed=0:01:07.81    \nframe=   45 fps=0.7 q=35.2 size=     256KiB time=00:00:01.43 bitrate=1463.4kbits/s speed=0.021x elapsed=0:01:08.32    \nframe=   45 fps=0.7 q=35.2 size=     256KiB time=00:00:01.43 bitrate=1463.4kbits/s speed=0.0208x elapsed=0:01:08.85    \nframe=   46 fps=0.7 q=35.3 size=     256KiB time=00:00:01.46 bitrate=1430.1kbits/s speed=0.0211x elapsed=0:01:09.37    \nframe=   46 fps=0.7 q=35.3 size=     256KiB time=00:00:01.46 bitrate=1430.1kbits/s speed=0.021x elapsed=0:01:09.90    \nframe=   47 fps=0.7 q=28.8 size=     256KiB time=00:00:01.50 bitrate=1398.3kbits/s speed=0.0213x elapsed=0:01:10.45    \nframe=   47 fps=0.7 q=28.8 size=     256KiB time=00:00:01.50 bitrate=1398.3kbits/s speed=0.0211x elapsed=0:01:10.96    \nframe=   47 fps=0.7 q=28.8 size=     256KiB time=00:00:01.50 bitrate=1398.3kbits/s speed=0.021x elapsed=0:01:11.49    \nframe=   47 fps=0.7 q=28.8 size=     256KiB time=00:00:01.50 bitrate=1398.3kbits/s speed=0.0208x elapsed=0:01:12.00    \nframe=   47 fps=0.6 q=28.8 size=     256KiB time=00:00:01.50 bitrate=1398.3kbits/s speed=0.0207x elapsed=0:01:12.56    \nframe=   47 fps=0.6 q=28.8 size=     256KiB time=00:00:01.50 bitrate=1398.3kbits/s speed=0.0205x elapsed=0:01:13.10    \nframe=   48 fps=0.7 q=33.5 size=     256KiB time=00:00:01.53 bitrate=1367.9kbits/s speed=0.0208x elapsed=0:01:13.63    \nframe=   48 fps=0.6 q=33.5 size=     256KiB time=00:00:01.53 bitrate=1367.9kbits/s speed=0.0207x elapsed=0:01:14.15    \nframe=   48 fps=0.6 q=33.5 size=     256KiB time=00:00:01.53 bitrate=1367.9kbits/s speed=0.0205x elapsed=0:01:14.67    \nframe=   49 fps=0.7 q=35.6 size=     256KiB time=00:00:01.56 bitrate=1338.8kbits/s speed=0.0208x elapsed=0:01:15.19    \nframe=   49 fps=0.6 q=35.6 size=     256KiB time=00:00:01.56 bitrate=1338.8kbits/s speed=0.0207x elapsed=0:01:15.71    \nframe=   50 fps=0.7 q=29.0 size=     256KiB time=00:00:01.60 bitrate=1310.9kbits/s speed=0.021x elapsed=0:01:16.23    \nframe=   51 fps=0.7 q=32.5 size=     256KiB time=00:00:01.63 bitrate=1284.2kbits/s speed=0.0213x elapsed=0:01:16.74    \nframe=   51 fps=0.7 q=32.5 size=     256KiB time=00:00:01.63 bitrate=1284.2kbits/s speed=0.0211x elapsed=0:01:17.28    \nframe=   51 fps=0.7 q=32.5 size=     256KiB time=00:00:01.63 bitrate=1284.2kbits/s speed=0.021x elapsed=0:01:17.80    \nframe=   51 fps=0.7 q=32.5 size=     256KiB time=00:00:01.63 bitrate=1284.2kbits/s speed=0.0208x elapsed=0:01:18.33    \nframe=   51 fps=0.6 q=32.5 size=     256KiB time=00:00:01.63 bitrate=1284.2kbits/s speed=0.0207x elapsed=0:01:18.86    \nframe=   51 fps=0.6 q=32.5 size=     256KiB time=00:00:01.63 bitrate=1284.2kbits/s speed=0.0206x elapsed=0:01:19.36    \nframe=   52 fps=0.7 q=34.5 size=     256KiB time=00:00:01.66 bitrate=1258.5kbits/s speed=0.0209x elapsed=0:01:19.88    \nframe=   52 fps=0.6 q=34.5 size=     256KiB time=00:00:01.66 bitrate=1258.5kbits/s speed=0.0207x elapsed=0:01:20.39    \nframe=   52 fps=0.6 q=34.5 size=     256KiB time=00:00:01.66 bitrate=1258.5kbits/s speed=0.0206x elapsed=0:01:20.92    \nframe=   53 fps=0.7 q=34.4 size=     256KiB time=00:00:01.70 bitrate=1233.8kbits/s speed=0.0209x elapsed=0:01:21.43    \nframe=   53 fps=0.6 q=34.4 size=     256KiB time=00:00:01.70 bitrate=1233.8kbits/s speed=0.0207x elapsed=0:01:21.94    \nframe=   53 fps=0.6 q=34.4 size=     256KiB time=00:00:01.70 bitrate=1233.8kbits/s speed=0.0206x elapsed=0:01:22.49    \nframe=   53 fps=0.6 q=34.4 size=     256KiB time=00:00:01.70 bitrate=1233.8kbits/s speed=0.0205x elapsed=0:01:23.04    \nframe=   54 fps=0.6 q=28.8 size=     256KiB time=00:00:01.73 bitrate=1210.1kbits/s speed=0.0207x elapsed=0:01:23.55    \nframe=   54 fps=0.6 q=28.8 size=     256KiB time=00:00:01.73 bitrate=1210.1kbits/s speed=0.0206x elapsed=0:01:24.07    \nframe=   54 fps=0.6 q=28.8 size=     256KiB time=00:00:01.73 bitrate=1210.1kbits/s speed=0.0205x elapsed=0:01:24.59    \nframe=   55 fps=0.6 q=31.5 size=     512KiB time=00:00:01.76 bitrate=2374.3kbits/s speed=0.0207x elapsed=0:01:25.14    \nframe=   56 fps=0.7 q=34.5 size=     512KiB time=00:00:01.80 bitrate=2330.4kbits/s speed=0.021x elapsed=0:01:25.67    \nframe=   56 fps=0.6 q=34.5 size=     512KiB time=00:00:01.80 bitrate=2330.4kbits/s speed=0.0209x elapsed=0:01:26.20    \nframe=   56 fps=0.6 q=34.5 size=     512KiB time=00:00:01.80 bitrate=2330.4kbits/s speed=0.0208x elapsed=0:01:26.70    \nframe=   56 fps=0.6 q=34.5 size=     512KiB time=00:00:01.80 bitrate=2330.4kbits/s speed=0.0206x elapsed=0:01:27.23    \nframe=   56 fps=0.6 q=34.5 size=     512KiB time=00:00:01.80 bitrate=2330.4kbits/s speed=0.0205x elapsed=0:01:27.75    \nframe=   56 fps=0.6 q=34.5 size=     512KiB time=00:00:01.80 bitrate=2330.4kbits/s speed=0.0204x elapsed=0:01:28.28    \nframe=   57 fps=0.6 q=34.6 size=     512KiB time=00:00:01.83 bitrate=2288.0kbits/s speed=0.0206x elapsed=0:01:28.81    \nframe=   57 fps=0.6 q=34.6 size=     512KiB time=00:00:01.83 bitrate=2288.0kbits/s speed=0.0205x elapsed=0:01:29.33    \nframe=   57 fps=0.6 q=34.6 size=     512KiB time=00:00:01.83 bitrate=2288.0kbits/s speed=0.0204x elapsed=0:01:29.86    \nframe=   58 fps=0.6 q=35.1 size=     512KiB time=00:00:01.86 bitrate=2247.1kbits/s speed=0.0207x elapsed=0:01:30.39    \nframe=   58 fps=0.6 q=35.1 size=     512KiB time=00:00:01.86 bitrate=2247.1kbits/s speed=0.0205x elapsed=0:01:30.89    \nframe=   58 fps=0.6 q=35.1 size=     512KiB time=00:00:01.86 bitrate=2247.1kbits/s speed=0.0204x elapsed=0:01:31.42    \nframe=   59 fps=0.6 q=28.8 size=     512KiB time=00:00:01.90 bitrate=2207.7kbits/s speed=0.0207x elapsed=0:01:31.93    \nframe=   60 fps=0.6 q=32.3 size=     512KiB time=00:00:01.93 bitrate=2169.7kbits/s speed=0.0209x elapsed=0:01:32.44    \nframe=   60 fps=0.6 q=32.3 size=     512KiB time=00:00:01.93 bitrate=2169.7kbits/s speed=0.0208x elapsed=0:01:32.96    \nframe=   61 fps=0.7 q=35.2 size=     512KiB time=00:00:01.96 bitrate=2132.9kbits/s speed=0.021x elapsed=0:01:33.49    \nframe=   61 fps=0.6 q=35.2 size=     512KiB time=00:00:01.96 bitrate=2132.9kbits/s speed=0.0209x elapsed=0:01:34.02    \nframe=   62 fps=0.7 q=34.7 size=     512KiB time=00:00:02.00 bitrate=2097.3kbits/s speed=0.0212x elapsed=0:01:34.54    \nframe=   62 fps=0.7 q=34.7 size=     512KiB time=00:00:02.00 bitrate=2097.3kbits/s speed=0.021x elapsed=0:01:35.06    \nframe=   62 fps=0.6 q=34.7 size=     512KiB time=00:00:02.00 bitrate=2097.3kbits/s speed=0.0209x elapsed=0:01:35.59    \nframe=   63 fps=0.7 q=28.5 size=     512KiB time=00:00:02.03 bitrate=2062.9kbits/s speed=0.0212x elapsed=0:01:36.12    \nframe=   63 fps=0.7 q=28.5 size=     512KiB time=00:00:02.03 bitrate=2062.9kbits/s speed=0.021x elapsed=0:01:36.63    \nframe=   63 fps=0.6 q=28.5 size=     512KiB time=00:00:02.03 bitrate=2062.9kbits/s speed=0.0209x elapsed=0:01:37.20    \nframe=   63 fps=0.6 q=28.5 size=     512KiB time=00:00:02.03 bitrate=2062.9kbits/s speed=0.0208x elapsed=0:01:37.86    \nframe=   63 fps=0.6 q=28.5 size=     512KiB time=00:00:02.03 bitrate=2062.9kbits/s speed=0.0207x elapsed=0:01:38.44    \nframe=   63 fps=0.6 q=28.5 size=     512KiB time=00:00:02.03 bitrate=2062.9kbits/s speed=0.0205x elapsed=0:01:38.97    \nframe=   64 fps=0.6 q=32.9 size=     512KiB time=00:00:02.06 bitrate=2029.7kbits/s speed=0.0208x elapsed=0:01:39.50    \nframe=   64 fps=0.6 q=32.9 size=     512KiB time=00:00:02.06 bitrate=2029.7kbits/s speed=0.0207x elapsed=0:01:40.02    \nframe=   64 fps=0.6 q=32.9 size=     512KiB time=00:00:02.06 bitrate=2029.7kbits/s speed=0.0206x elapsed=0:01:40.54    \nframe=   65 fps=0.6 q=35.5 size=     512KiB time=00:00:02.10 bitrate=1997.5kbits/s speed=0.0208x elapsed=0:01:41.08    \nframe=   65 fps=0.6 q=35.5 size=     512KiB time=00:00:02.10 bitrate=1997.5kbits/s speed=0.0207x elapsed=0:01:41.63    \nframe=   65 fps=0.6 q=35.5 size=     512KiB time=00:00:02.10 bitrate=1997.5kbits/s speed=0.0206x elapsed=0:01:42.15    \nframe=   66 fps=0.6 q=35.5 size=     512KiB time=00:00:02.13 bitrate=1966.2kbits/s speed=0.0208x elapsed=0:01:42.67    \nframe=   66 fps=0.6 q=35.5 size=     512KiB time=00:00:02.13 bitrate=1966.2kbits/s speed=0.0207x elapsed=0:01:43.23    \nframe=   66 fps=0.6 q=35.5 size=     512KiB time=00:00:02.13 bitrate=1966.2kbits/s speed=0.0206x elapsed=0:01:43.77    \nframe=   67 fps=0.6 q=28.4 size=     512KiB time=00:00:02.16 bitrate=1936.0kbits/s speed=0.0208x elapsed=0:01:44.30    \nframe=   67 fps=0.6 q=28.4 size=     512KiB time=00:00:02.16 bitrate=1936.0kbits/s speed=0.0207x elapsed=0:01:44.82    \nframe=   67 fps=0.6 q=28.4 size=     512KiB time=00:00:02.16 bitrate=1936.0kbits/s speed=0.0206x elapsed=0:01:45.36    \nframe=   68 fps=0.6 q=32.8 size=     512KiB time=00:00:02.20 bitrate=1906.7kbits/s speed=0.0208x elapsed=0:01:45.89    \nframe=   68 fps=0.6 q=32.8 size=     512KiB time=00:00:02.20 bitrate=1906.7kbits/s speed=0.0207x elapsed=0:01:46.41    \nframe=   68 fps=0.6 q=32.8 size=     512KiB time=00:00:02.20 bitrate=1906.7kbits/s speed=0.0206x elapsed=0:01:46.94    \nframe=   70 fps=0.7 q=34.5 size=     512KiB time=00:00:02.26 bitrate=1850.6kbits/s speed=0.0211x elapsed=0:01:47.46    \nframe=   70 fps=0.6 q=34.5 size=     512KiB time=00:00:02.26 bitrate=1850.6kbits/s speed=0.021x elapsed=0:01:47.99    \nframe=   70 fps=0.6 q=34.5 size=     512KiB time=00:00:02.26 bitrate=1850.6kbits/s speed=0.0209x elapsed=0:01:48.54    \nframe=   70 fps=0.6 q=34.5 size=     512KiB time=00:00:02.26 bitrate=1850.6kbits/s speed=0.0208x elapsed=0:01:49.07    \nframe=   70 fps=0.6 q=34.5 size=     512KiB time=00:00:02.26 bitrate=1850.6kbits/s speed=0.0207x elapsed=0:01:49.59    \nframe=   71 fps=0.6 q=28.3 size=     512KiB time=00:00:02.30 bitrate=1823.8kbits/s speed=0.0209x elapsed=0:01:50.15    \nframe=   72 fps=0.7 q=32.1 size=     512KiB time=00:00:02.33 bitrate=1797.7kbits/s speed=0.0211x elapsed=0:01:50.70    \nframe=   72 fps=0.6 q=32.1 size=     512KiB time=00:00:02.33 bitrate=1797.7kbits/s speed=0.021x elapsed=0:01:51.21    \nframe=   73 fps=0.7 q=35.5 size=     512KiB time=00:00:02.36 bitrate=1772.4kbits/s speed=0.0212x elapsed=0:01:51.72    \nframe=   73 fps=0.7 q=35.5 size=     512KiB time=00:00:02.36 bitrate=1772.4kbits/s speed=0.0211x elapsed=0:01:52.25    \nframe=   74 fps=0.7 q=34.3 size=     512KiB time=00:00:02.40 bitrate=1747.8kbits/s speed=0.0213x elapsed=0:01:52.78    \nframe=   74 fps=0.7 q=34.3 size=     512KiB time=00:00:02.40 bitrate=1747.8kbits/s speed=0.0212x elapsed=0:01:53.30    \nframe=   74 fps=0.7 q=34.3 size=     512KiB time=00:00:02.40 bitrate=1747.8kbits/s speed=0.0211x elapsed=0:01:53.82    \nframe=   74 fps=0.6 q=34.3 size=     512KiB time=00:00:02.40 bitrate=1747.8kbits/s speed=0.021x elapsed=0:01:54.35    \nframe=   74 fps=0.6 q=34.3 size=     512KiB time=00:00:02.40 bitrate=1747.8kbits/s speed=0.0209x elapsed=0:01:54.87    \nframe=   75 fps=0.6 q=28.2 size=     512KiB time=00:00:02.43 bitrate=1723.8kbits/s speed=0.0211x elapsed=0:01:55.41    \nframe=   75 fps=0.6 q=28.2 size=     512KiB time=00:00:02.43 bitrate=1723.8kbits/s speed=0.021x elapsed=0:01:55.94    \nframe=   75 fps=0.6 q=28.2 size=     512KiB time=00:00:02.43 bitrate=1723.8kbits/s speed=0.0209x elapsed=0:01:56.46    \nframe=   75 fps=0.6 q=28.2 size=     512KiB time=00:00:02.43 bitrate=1723.8kbits/s speed=0.0208x elapsed=0:01:56.98    \nframe=   75 fps=0.6 q=28.2 size=     512KiB time=00:00:02.43 bitrate=1723.8kbits/s speed=0.0207x elapsed=0:01:57.49    \nframe=   76 fps=0.6 q=31.9 size=     512KiB time=00:00:02.46 bitrate=1700.5kbits/s speed=0.0209x elapsed=0:01:58.01    \nframe=   76 fps=0.6 q=31.9 size=     512KiB time=00:00:02.46 bitrate=1700.5kbits/s speed=0.0208x elapsed=0:01:58.52    \nframe=   77 fps=0.6 q=35.5 size=     512KiB time=00:00:02.50 bitrate=1677.9kbits/s speed=0.021x elapsed=0:01:59.06    \nframe=   78 fps=0.7 q=35.3 size=     512KiB time=00:00:02.53 bitrate=1655.8kbits/s speed=0.0212x elapsed=0:01:59.59    \nframe=   78 fps=0.6 q=35.3 size=     512KiB time=00:00:02.53 bitrate=1655.8kbits/s speed=0.0211x elapsed=0:02:00.12    \nframe=   78 fps=0.6 q=35.3 size=     512KiB time=00:00:02.53 bitrate=1655.8kbits/s speed=0.021x elapsed=0:02:00.63    \nframe=   79 fps=0.7 q=28.3 size=     512KiB time=00:00:02.56 bitrate=1634.3kbits/s speed=0.0212x elapsed=0:02:01.14    \nframe=   79 fps=0.6 q=28.3 size=     512KiB time=00:00:02.56 bitrate=1634.3kbits/s speed=0.0211x elapsed=0:02:01.68    \nframe=   79 fps=0.6 q=28.3 size=     512KiB time=00:00:02.56 bitrate=1634.3kbits/s speed=0.021x elapsed=0:02:02.21    \nframe=   79 fps=0.6 q=28.3 size=     512KiB time=00:00:02.56 bitrate=1634.3kbits/s speed=0.0209x elapsed=0:02:02.75    \nframe=   80 fps=0.6 q=32.3 size=     768KiB time=00:00:02.60 bitrate=2419.9kbits/s speed=0.0211x elapsed=0:02:03.27    \nframe=   80 fps=0.6 q=32.3 size=     768KiB time=00:00:02.60 bitrate=2419.9kbits/s speed=0.021x elapsed=0:02:03.79    \nframe=   81 fps=0.7 q=35.6 size=     768KiB time=00:00:02.63 bitrate=2389.3kbits/s speed=0.0212x elapsed=0:02:04.31    \nframe=   81 fps=0.6 q=35.6 size=     768KiB time=00:00:02.63 bitrate=2389.3kbits/s speed=0.0211x elapsed=0:02:04.82    \nframe=   81 fps=0.6 q=35.6 size=     768KiB time=00:00:02.63 bitrate=2389.3kbits/s speed=0.021x elapsed=0:02:05.35    \nframe=   82 fps=0.7 q=35.2 size=     768KiB time=00:00:02.66 bitrate=2359.4kbits/s speed=0.0212x elapsed=0:02:05.89    \nframe=   83 fps=0.7 q=28.4 size=     768KiB time=00:00:02.70 bitrate=2330.3kbits/s speed=0.0214x elapsed=0:02:06.42    \nframe=   83 fps=0.7 q=28.4 size=     768KiB time=00:00:02.70 bitrate=2330.3kbits/s speed=0.0213x elapsed=0:02:06.97    \nframe=   83 fps=0.7 q=28.4 size=     768KiB time=00:00:02.70 bitrate=2330.3kbits/s speed=0.0212x elapsed=0:02:07.49    \nframe=   83 fps=0.6 q=28.4 size=     768KiB time=00:00:02.70 bitrate=2330.3kbits/s speed=0.0211x elapsed=0:02:08.02    \nframe=   84 fps=0.7 q=31.7 size=     768KiB time=00:00:02.73 bitrate=2301.9kbits/s speed=0.0213x elapsed=0:02:08.55    \nframe=   84 fps=0.7 q=31.7 size=     768KiB time=00:00:02.73 bitrate=2301.9kbits/s speed=0.0212x elapsed=0:02:09.05    \nframe=   85 fps=0.7 q=35.6 size=     768KiB time=00:00:02.76 bitrate=2274.1kbits/s speed=0.0214x elapsed=0:02:09.57    \nframe=   85 fps=0.7 q=35.6 size=     768KiB time=00:00:02.76 bitrate=2274.1kbits/s speed=0.0213x elapsed=0:02:10.10    \nframe=   86 fps=0.7 q=35.3 size=     768KiB time=00:00:02.80 bitrate=2247.1kbits/s speed=0.0214x elapsed=0:02:10.62    \nframe=   86 fps=0.7 q=35.3 size=     768KiB time=00:00:02.80 bitrate=2247.1kbits/s speed=0.0214x elapsed=0:02:11.14    \nframe=   86 fps=0.7 q=35.3 size=     768KiB time=00:00:02.80 bitrate=2247.1kbits/s speed=0.0213x elapsed=0:02:11.67    \nframe=   86 fps=0.7 q=35.3 size=     768KiB time=00:00:02.80 bitrate=2247.1kbits/s speed=0.0212x elapsed=0:02:12.21    \nframe=   87 fps=0.7 q=27.9 size=     768KiB time=00:00:02.80 bitrate=2247.1kbits/s speed=0.0211x elapsed=0:02:12.73    \nframe=   87 fps=0.7 q=27.9 size=     768KiB time=00:00:02.83 bitrate=2220.6kbits/s speed=0.0213x elapsed=0:02:13.26    \nframe=   87 fps=0.6 q=27.9 size=     768KiB time=00:00:02.83 bitrate=2220.6kbits/s speed=0.0212x elapsed=0:02:13.84    \nframe=   87 fps=0.6 q=27.9 size=     768KiB time=00:00:02.83 bitrate=2220.6kbits/s speed=0.0211x elapsed=0:02:14.43    \nframe=   87 fps=0.6 q=27.9 size=     768KiB time=00:00:02.83 bitrate=2220.6kbits/s speed=0.021x elapsed=0:02:15.02    \nframe=   87 fps=0.6 q=27.9 size=     768KiB time=00:00:02.83 bitrate=2220.6kbits/s speed=0.0209x elapsed=0:02:15.57    \nframe=   87 fps=0.6 q=27.9 size=     768KiB time=00:00:02.83 bitrate=2220.6kbits/s speed=0.0208x elapsed=0:02:16.10    \nframe=   87 fps=0.6 q=27.9 size=     768KiB time=00:00:02.83 bitrate=2220.6kbits/s speed=0.0207x elapsed=0:02:16.66    \nframe=   88 fps=0.6 q=35.5 size=     768KiB time=00:00:02.86 bitrate=2194.8kbits/s speed=0.0209x elapsed=0:02:17.25    \nframe=   88 fps=0.6 q=35.5 size=     768KiB time=00:00:02.86 bitrate=2194.8kbits/s speed=0.0208x elapsed=0:02:17.89    \nframe=   88 fps=0.6 q=35.5 size=     768KiB time=00:00:02.86 bitrate=2194.8kbits/s speed=0.0207x elapsed=0:02:18.45    \nframe=   88 fps=0.6 q=35.5 size=     768KiB time=00:00:02.86 bitrate=2194.8kbits/s speed=0.0206x elapsed=0:02:19.00    \nframe=   88 fps=0.6 q=35.5 size=     768KiB time=00:00:02.86 bitrate=2194.8kbits/s speed=0.0205x elapsed=0:02:19.54    \nframe=   89 fps=0.6 q=28.0 size=     768KiB time=00:00:02.86 bitrate=2194.8kbits/s speed=0.0205x elapsed=0:02:20.07    \nframe=   89 fps=0.6 q=28.0 size=     768KiB time=00:00:02.90 bitrate=2169.6kbits/s speed=0.0206x elapsed=0:02:20.63    \nframe=   89 fps=0.6 q=28.0 size=     768KiB time=00:00:02.90 bitrate=2169.6kbits/s speed=0.0205x elapsed=0:02:21.14    \nframe=   89 fps=0.6 q=28.0 size=     768KiB time=00:00:02.90 bitrate=2169.6kbits/s speed=0.0205x elapsed=0:02:21.67    \nframe=   89 fps=0.6 q=28.0 size=     768KiB time=00:00:02.90 bitrate=2169.6kbits/s speed=0.0204x elapsed=0:02:22.19    \nframe=   90 fps=0.6 q=30.1 size=     768KiB time=00:00:02.93 bitrate=2144.9kbits/s speed=0.0205x elapsed=0:02:22.74    \nframe=   90 fps=0.6 q=30.1 size=     768KiB time=00:00:02.93 bitrate=2144.9kbits/s speed=0.0205x elapsed=0:02:23.29    \nframe=   90 fps=0.6 q=30.1 size=     768KiB time=00:00:02.93 bitrate=2144.9kbits/s speed=0.0204x elapsed=0:02:23.85    \nframe=   90 fps=0.6 q=30.1 size=     768KiB time=00:00:02.93 bitrate=2144.9kbits/s speed=0.0203x elapsed=0:02:24.38    \nframe=   90 fps=0.6 q=30.1 size=     768KiB time=00:00:02.93 bitrate=2144.9kbits/s speed=0.0202x elapsed=0:02:24.91    \nframe=   91 fps=0.6 q=35.8 size=     768KiB time=00:00:02.96 bitrate=2120.8kbits/s speed=0.0204x elapsed=0:02:25.42    \nframe=   91 fps=0.6 q=35.8 size=     768KiB time=00:00:02.96 bitrate=2120.8kbits/s speed=0.0203x elapsed=0:02:25.95    \nframe=   92 fps=0.6 q=35.9 size=     768KiB time=00:00:03.00 bitrate=2097.3kbits/s speed=0.0205x elapsed=0:02:26.47    \nframe=   93 fps=0.6 q=36.3 size=     768KiB time=00:00:03.03 bitrate=2074.2kbits/s speed=0.0206x elapsed=0:02:26.99    \nframe=   93 fps=0.6 q=36.3 size=     768KiB time=00:00:03.03 bitrate=2074.2kbits/s speed=0.0206x elapsed=0:02:27.53    \nframe=   93 fps=0.6 q=36.3 size=     768KiB time=00:00:03.03 bitrate=2074.2kbits/s speed=0.0205x elapsed=0:02:28.11    \nframe=   94 fps=0.6 q=28.7 size=     768KiB time=00:00:03.06 bitrate=2051.7kbits/s speed=0.0206x elapsed=0:02:28.63    \nframe=   94 fps=0.6 q=28.7 size=     768KiB time=00:00:03.06 bitrate=2051.7kbits/s speed=0.0206x elapsed=0:02:29.18    \nframe=   94 fps=0.6 q=28.7 size=     768KiB time=00:00:03.06 bitrate=2051.7kbits/s speed=0.0205x elapsed=0:02:29.70    \nframe=   94 fps=0.6 q=28.7 size=     768KiB time=00:00:03.06 bitrate=2051.7kbits/s speed=0.0204x elapsed=0:02:30.24    \nframe=   94 fps=0.6 q=28.7 size=     768KiB time=00:00:03.06 bitrate=2051.7kbits/s speed=0.0203x elapsed=0:02:30.76    \nframe=   95 fps=0.6 q=30.2 size=     768KiB time=00:00:03.10 bitrate=2029.6kbits/s speed=0.0205x elapsed=0:02:31.31    \nframe=   96 fps=0.6 q=36.1 size=     768KiB time=00:00:03.10 bitrate=2029.6kbits/s speed=0.0204x elapsed=0:02:31.85    \nframe=   96 fps=0.6 q=36.1 size=     768KiB time=00:00:03.13 bitrate=2008.0kbits/s speed=0.0206x elapsed=0:02:32.38    \nframe=   96 fps=0.6 q=36.1 size=     768KiB time=00:00:03.13 bitrate=2008.0kbits/s speed=0.0205x elapsed=0:02:32.91    \nframe=   96 fps=0.6 q=36.1 size=     768KiB time=00:00:03.13 bitrate=2008.0kbits/s speed=0.0204x elapsed=0:02:33.44    \nframe=   96 fps=0.6 q=36.1 size=     768KiB time=00:00:03.13 bitrate=2008.0kbits/s speed=0.0203x elapsed=0:02:33.98    \nframe=   97 fps=0.6 q=36.4 size=     768KiB time=00:00:03.16 bitrate=1986.9kbits/s speed=0.0205x elapsed=0:02:34.49    \nframe=   98 fps=0.6 q=36.6 size=     768KiB time=00:00:03.20 bitrate=1966.2kbits/s speed=0.0206x elapsed=0:02:35.00    \nframe=   98 fps=0.6 q=36.6 size=     768KiB time=00:00:03.20 bitrate=1966.2kbits/s speed=0.0206x elapsed=0:02:35.53    \nframe=   98 fps=0.6 q=36.6 size=     768KiB time=00:00:03.20 bitrate=1966.2kbits/s speed=0.0205x elapsed=0:02:36.05    \nframe=   98 fps=0.6 q=36.6 size=     768KiB time=00:00:03.20 bitrate=1966.2kbits/s speed=0.0204x elapsed=0:02:36.57    \nframe=   99 fps=0.6 q=28.8 size=     768KiB time=00:00:03.23 bitrate=1945.9kbits/s speed=0.0206x elapsed=0:02:37.08    \nframe=   99 fps=0.6 q=28.8 size=     768KiB time=00:00:03.23 bitrate=1945.9kbits/s speed=0.0205x elapsed=0:02:37.61    \nframe=   99 fps=0.6 q=28.8 size=     768KiB time=00:00:03.23 bitrate=1945.9kbits/s speed=0.0204x elapsed=0:02:38.13    \nframe=   99 fps=0.6 q=28.8 size=     768KiB time=00:00:03.23 bitrate=1945.9kbits/s speed=0.0204x elapsed=0:02:38.71    \nframe=   99 fps=0.6 q=28.8 size=     768KiB time=00:00:03.23 bitrate=1945.9kbits/s speed=0.0203x elapsed=0:02:39.32    \nframe=   99 fps=0.6 q=28.8 size=     768KiB time=00:00:03.23 bitrate=1945.9kbits/s speed=0.0202x elapsed=0:02:39.92    \nframe=  100 fps=0.6 q=33.8 size=     768KiB time=00:00:03.26 bitrate=1926.1kbits/s speed=0.0204x elapsed=0:02:40.46    \nframe=  100 fps=0.6 q=33.8 size=     768KiB time=00:00:03.26 bitrate=1926.1kbits/s speed=0.0203x elapsed=0:02:40.98    \nframe=  100 fps=0.6 q=33.8 size=     768KiB time=00:00:03.26 bitrate=1926.1kbits/s speed=0.0202x elapsed=0:02:41.52    \nframe=  100 fps=0.6 q=33.8 size=     768KiB time=00:00:03.26 bitrate=1926.1kbits/s speed=0.0202x elapsed=0:02:42.05    \nframe=  100 fps=0.6 q=33.8 size=     768KiB time=00:00:03.26 bitrate=1926.1kbits/s speed=0.0201x elapsed=0:02:42.63    \nframe=  101 fps=0.6 q=36.4 size=     768KiB time=00:00:03.30 bitrate=1906.6kbits/s speed=0.0202x elapsed=0:02:43.18    \nframe=  101 fps=0.6 q=36.4 size=     768KiB time=00:00:03.30 bitrate=1906.6kbits/s speed=0.0202x elapsed=0:02:43.71    \nframe=  101 fps=0.6 q=36.4 size=     768KiB time=00:00:03.30 bitrate=1906.6kbits/s speed=0.0201x elapsed=0:02:44.26    \nframe=  101 fps=0.6 q=36.4 size=     768KiB time=00:00:03.30 bitrate=1906.6kbits/s speed=0.02x elapsed=0:02:44.79    \nframe=  101 fps=0.6 q=36.4 size=     768KiB time=00:00:03.30 bitrate=1906.6kbits/s speed=0.02x elapsed=0:02:45.40    \nframe=  102 fps=0.6 q=37.1 size=     768KiB time=00:00:03.33 bitrate=1887.5kbits/s speed=0.0201x elapsed=0:02:45.95    \nframe=  102 fps=0.6 q=37.1 size=     768KiB time=00:00:03.33 bitrate=1887.5kbits/s speed=0.02x elapsed=0:02:46.48    \nframe=  102 fps=0.6 q=37.1 size=     768KiB time=00:00:03.33 bitrate=1887.5kbits/s speed=0.02x elapsed=0:02:47.03    \nframe=  102 fps=0.6 q=37.1 size=     768KiB time=00:00:03.33 bitrate=1887.5kbits/s speed=0.0199x elapsed=0:02:47.67    \nframe=  102 fps=0.6 q=37.1 size=     768KiB time=00:00:03.33 bitrate=1887.5kbits/s speed=0.0198x elapsed=0:02:48.23    \nframe=  103 fps=0.6 q=29.1 size=     768KiB time=00:00:03.36 bitrate=1868.9kbits/s speed=0.0199x elapsed=0:02:48.79    \nframe=  103 fps=0.6 q=29.1 size=     768KiB time=00:00:03.36 bitrate=1868.9kbits/s speed=0.0199x elapsed=0:02:49.31    \nframe=  103 fps=0.6 q=29.1 size=     768KiB time=00:00:03.36 bitrate=1868.9kbits/s speed=0.0198x elapsed=0:02:49.88    \nframe=  103 fps=0.6 q=29.1 size=     768KiB time=00:00:03.36 bitrate=1868.9kbits/s speed=0.0198x elapsed=0:02:50.44    \nframe=  104 fps=0.6 q=33.9 size=    1024KiB time=00:00:03.40 bitrate=2467.3kbits/s speed=0.0199x elapsed=0:02:50.96    \nframe=  104 fps=0.6 q=33.9 size=    1024KiB time=00:00:03.40 bitrate=2467.3kbits/s speed=0.0198x elapsed=0:02:51.50    \nframe=  104 fps=0.6 q=33.9 size=    1024KiB time=00:00:03.40 bitrate=2467.3kbits/s speed=0.0198x elapsed=0:02:52.00    \nframe=  105 fps=0.6 q=36.6 size=    1024KiB time=00:00:03.43 bitrate=2443.4kbits/s speed=0.0199x elapsed=0:02:52.55    \nframe=  105 fps=0.6 q=36.6 size=    1024KiB time=00:00:03.43 bitrate=2443.4kbits/s speed=0.0198x elapsed=0:02:53.13    \nframe=  105 fps=0.6 q=36.6 size=    1024KiB time=00:00:03.43 bitrate=2443.4kbits/s speed=0.0198x elapsed=0:02:53.71    \nframe=  105 fps=0.6 q=36.6 size=    1024KiB time=00:00:03.43 bitrate=2443.4kbits/s speed=0.0197x elapsed=0:02:54.25    \nframe=  105 fps=0.6 q=36.6 size=    1024KiB time=00:00:03.43 bitrate=2443.4kbits/s speed=0.0196x elapsed=0:02:54.77    \nframe=  106 fps=0.6 q=37.7 size=    1024KiB time=00:00:03.46 bitrate=2419.9kbits/s speed=0.0198x elapsed=0:02:55.31    \nframe=  106 fps=0.6 q=37.7 size=    1024KiB time=00:00:03.46 bitrate=2419.9kbits/s speed=0.0197x elapsed=0:02:55.89    \nframe=  106 fps=0.6 q=37.7 size=    1024KiB time=00:00:03.46 bitrate=2419.9kbits/s speed=0.0197x elapsed=0:02:56.41    \nframe=  106 fps=0.6 q=37.7 size=    1024KiB time=00:00:03.46 bitrate=2419.9kbits/s speed=0.0196x elapsed=0:02:56.93    \nframe=  106 fps=0.6 q=37.7 size=    1024KiB time=00:00:03.46 bitrate=2419.9kbits/s speed=0.0195x elapsed=0:02:57.48    \nframe=  106 fps=0.6 q=37.7 size=    1024KiB time=00:00:03.46 bitrate=2419.9kbits/s speed=0.0195x elapsed=0:02:58.06    \nframe=  106 fps=0.6 q=37.7 size=    1024KiB time=00:00:03.46 bitrate=2419.9kbits/s speed=0.0194x elapsed=0:02:58.61    \nframe=  107 fps=0.6 q=29.2 size=    1024KiB time=00:00:03.50 bitrate=2396.8kbits/s speed=0.0195x elapsed=0:02:59.15    \nframe=  107 fps=0.6 q=29.2 size=    1024KiB time=00:00:03.50 bitrate=2396.8kbits/s speed=0.0195x elapsed=0:02:59.71    \nframe=  107 fps=0.6 q=29.2 size=    1024KiB time=00:00:03.50 bitrate=2396.8kbits/s speed=0.0194x elapsed=0:03:00.26    \nframe=  107 fps=0.6 q=29.2 size=    1024KiB time=00:00:03.50 bitrate=2396.8kbits/s speed=0.0194x elapsed=0:03:00.85    \nframe=  108 fps=0.6 q=33.9 size=    1024KiB time=00:00:03.53 bitrate=2374.2kbits/s speed=0.0195x elapsed=0:03:01.38    \nframe=  108 fps=0.6 q=33.9 size=    1024KiB time=00:00:03.53 bitrate=2374.2kbits/s speed=0.0194x elapsed=0:03:01.94    \nframe=  108 fps=0.6 q=33.9 size=    1024KiB time=00:00:03.53 bitrate=2374.2kbits/s speed=0.0194x elapsed=0:03:02.52    \nframe=  108 fps=0.6 q=33.9 size=    1024KiB time=00:00:03.53 bitrate=2374.2kbits/s speed=0.0193x elapsed=0:03:03.04    \nframe=  108 fps=0.6 q=33.9 size=    1024KiB time=00:00:03.53 bitrate=2374.2kbits/s speed=0.0192x elapsed=0:03:03.61    \nframe=  108 fps=0.6 q=33.9 size=    1024KiB time=00:00:03.53 bitrate=2374.2kbits/s speed=0.0192x elapsed=0:03:04.16    \nframe=  108 fps=0.6 q=33.9 size=    1024KiB time=00:00:03.53 bitrate=2374.2kbits/s speed=0.0191x elapsed=0:03:04.75    \nframe=  108 fps=0.6 q=33.9 size=    1024KiB time=00:00:03.53 bitrate=2374.2kbits/s speed=0.0191x elapsed=0:03:05.33    \nframe=  108 fps=0.6 q=33.9 size=    1024KiB time=00:00:03.53 bitrate=2374.2kbits/s speed=0.019x elapsed=0:03:05.88    \nframe=  108 fps=0.6 q=33.9 size=    1024KiB time=00:00:03.53 bitrate=2374.2kbits/s speed=0.0189x elapsed=0:03:06.48    \nframe=  108 fps=0.6 q=33.9 size=    1024KiB time=00:00:03.53 bitrate=2374.2kbits/s speed=0.0189x elapsed=0:03:07.02    \nframe=  108 fps=0.6 q=33.9 size=    1024KiB time=00:00:03.53 bitrate=2374.2kbits/s speed=0.0188x elapsed=0:03:07.54    \nframe=  109 fps=0.6 q=36.6 size=    1024KiB time=00:00:03.56 bitrate=2352.0kbits/s speed=0.019x elapsed=0:03:08.10    \nframe=  109 fps=0.6 q=36.6 size=    1024KiB time=00:00:03.56 bitrate=2352.0kbits/s speed=0.0189x elapsed=0:03:08.62    \nframe=  110 fps=0.6 q=29.3 size=    1024KiB time=00:00:03.60 bitrate=2330.3kbits/s speed=0.019x elapsed=0:03:09.15    \nframe=  110 fps=0.6 q=29.3 size=    1024KiB time=00:00:03.60 bitrate=2330.3kbits/s speed=0.019x elapsed=0:03:09.70    \nframe=  110 fps=0.6 q=29.3 size=    1024KiB time=00:00:03.60 bitrate=2330.3kbits/s speed=0.0189x elapsed=0:03:10.21    \nframe=  110 fps=0.6 q=29.3 size=    1024KiB time=00:00:03.60 bitrate=2330.3kbits/s speed=0.0189x elapsed=0:03:10.73    \nframe=  110 fps=0.6 q=29.3 size=    1024KiB time=00:00:03.60 bitrate=2330.3kbits/s speed=0.0188x elapsed=0:03:11.27    \nframe=  110 fps=0.6 q=29.3 size=    1024KiB time=00:00:03.60 bitrate=2330.3kbits/s speed=0.0188x elapsed=0:03:11.79    \nframe=  111 fps=0.6 q=34.6 size=    1024KiB time=00:00:03.63 bitrate=2308.9kbits/s speed=0.0189x elapsed=0:03:12.33    \nframe=  112 fps=0.6 q=37.4 size=    1024KiB time=00:00:03.66 bitrate=2287.9kbits/s speed=0.019x elapsed=0:03:12.88    \nframe=  112 fps=0.6 q=37.4 size=    1024KiB time=00:00:03.66 bitrate=2287.9kbits/s speed=0.019x elapsed=0:03:13.40    \nframe=  112 fps=0.6 q=37.4 size=    1024KiB time=00:00:03.66 bitrate=2287.9kbits/s speed=0.0189x elapsed=0:03:13.92    \nframe=  112 fps=0.6 q=37.4 size=    1024KiB time=00:00:03.66 bitrate=2287.9kbits/s speed=0.0189x elapsed=0:03:14.44    \nframe=  113 fps=0.6 q=37.5 size=    1024KiB time=00:00:03.70 bitrate=2267.3kbits/s speed=0.019x elapsed=0:03:14.98    \nframe=  113 fps=0.6 q=37.5 size=    1024KiB time=00:00:03.70 bitrate=2267.3kbits/s speed=0.0189x elapsed=0:03:15.50    \nframe=  113 fps=0.6 q=37.5 size=    1024KiB time=00:00:03.70 bitrate=2267.3kbits/s speed=0.0189x elapsed=0:03:16.04    \nframe=  114 fps=0.6 q=29.1 size=    1024KiB time=00:00:03.73 bitrate=2247.0kbits/s speed=0.019x elapsed=0:03:16.57    \nframe=  114 fps=0.6 q=29.1 size=    1024KiB time=00:00:03.73 bitrate=2247.0kbits/s speed=0.0189x elapsed=0:03:17.10    \nframe=  114 fps=0.6 q=29.1 size=    1024KiB time=00:00:03.73 bitrate=2247.0kbits/s speed=0.0189x elapsed=0:03:17.62    \nframe=  114 fps=0.6 q=29.1 size=    1024KiB time=00:00:03.73 bitrate=2247.0kbits/s speed=0.0188x elapsed=0:03:18.14    \nframe=  115 fps=0.6 q=34.7 size=    1024KiB time=00:00:03.76 bitrate=2227.2kbits/s speed=0.019x elapsed=0:03:18.66    \nframe=  115 fps=0.6 q=34.7 size=    1024KiB time=00:00:03.76 bitrate=2227.2kbits/s speed=0.0189x elapsed=0:03:19.20    \nframe=  115 fps=0.6 q=34.7 size=    1024KiB time=00:00:03.76 bitrate=2227.2kbits/s speed=0.0189x elapsed=0:03:19.73    \nframe=  115 fps=0.6 q=34.7 size=    1024KiB time=00:00:03.76 bitrate=2227.2kbits/s speed=0.0188x elapsed=0:03:20.27    \nframe=  115 fps=0.6 q=34.7 size=    1024KiB time=00:00:03.76 bitrate=2227.2kbits/s speed=0.0188x elapsed=0:03:20.87    \nframe=  115 fps=0.6 q=34.7 size=    1024KiB time=00:00:03.76 bitrate=2227.2kbits/s speed=0.0187x elapsed=0:03:21.52    \nframe=  115 fps=0.6 q=34.7 size=    1024KiB time=00:00:03.76 bitrate=2227.2kbits/s speed=0.0186x elapsed=0:03:22.09    \nframe=  115 fps=0.6 q=34.7 size=    1024KiB time=00:00:03.76 bitrate=2227.2kbits/s speed=0.0186x elapsed=0:03:22.69    \nframe=  115 fps=0.6 q=34.7 size=    1024KiB time=00:00:03.76 bitrate=2227.2kbits/s speed=0.0185x elapsed=0:03:23.23    \nframe=  116 fps=0.6 q=37.5 size=    1024KiB time=00:00:03.80 bitrate=2207.6kbits/s speed=0.0186x elapsed=0:03:23.78    \nframe=  116 fps=0.6 q=37.5 size=    1024KiB time=00:00:03.80 bitrate=2207.6kbits/s speed=0.0186x elapsed=0:03:24.30    \nframe=  117 fps=0.6 q=37.5 size=    1024KiB time=00:00:03.83 bitrate=2188.4kbits/s speed=0.0187x elapsed=0:03:24.81    \nframe=  117 fps=0.6 q=37.5 size=    1024KiB time=00:00:03.83 bitrate=2188.4kbits/s speed=0.0187x elapsed=0:03:25.36    \nframe=  117 fps=0.6 q=37.5 size=    1024KiB time=00:00:03.83 bitrate=2188.4kbits/s speed=0.0186x elapsed=0:03:25.98    \nframe=  117 fps=0.6 q=37.5 size=    1024KiB time=00:00:03.83 bitrate=2188.4kbits/s speed=0.0186x elapsed=0:03:26.51    \nframe=  117 fps=0.6 q=37.5 size=    1024KiB time=00:00:03.83 bitrate=2188.4kbits/s speed=0.0185x elapsed=0:03:27.05    \nframe=  117 fps=0.6 q=37.5 size=    1024KiB time=00:00:03.83 bitrate=2188.4kbits/s speed=0.0185x elapsed=0:03:27.59    \nframe=  117 fps=0.6 q=37.5 size=    1024KiB time=00:00:03.83 bitrate=2188.4kbits/s speed=0.0184x elapsed=0:03:28.14    \nframe=  117 fps=0.6 q=37.5 size=    1024KiB time=00:00:03.83 bitrate=2188.4kbits/s speed=0.0184x elapsed=0:03:28.70    \nframe=  117 fps=0.6 q=37.5 size=    1024KiB time=00:00:03.83 bitrate=2188.4kbits/s speed=0.0183x elapsed=0:03:29.24    \nframe=  117 fps=0.6 q=37.5 size=    1024KiB time=00:00:03.83 bitrate=2188.4kbits/s speed=0.0183x elapsed=0:03:29.76    \nframe=  117 fps=0.6 q=37.5 size=    1024KiB time=00:00:03.83 bitrate=2188.4kbits/s speed=0.0182x elapsed=0:03:30.33    \nframe=  117 fps=0.6 q=37.5 size=    1024KiB time=00:00:03.83 bitrate=2188.4kbits/s speed=0.0182x elapsed=0:03:30.89    \nframe=  117 fps=0.6 q=37.5 size=    1024KiB time=00:00:03.83 bitrate=2188.4kbits/s speed=0.0181x elapsed=0:03:31.48    \nframe=  117 fps=0.6 q=37.5 size=    1024KiB time=00:00:03.83 bitrate=2188.4kbits/s speed=0.0181x elapsed=0:03:32.02    \nframe=  118 fps=0.6 q=29.4 size=    1024KiB time=00:00:03.86 bitrate=2169.6kbits/s speed=0.0182x elapsed=0:03:32.57    \nframe=  118 fps=0.6 q=29.4 size=    1024KiB time=00:00:03.86 bitrate=2169.6kbits/s speed=0.0181x elapsed=0:03:33.16    \nframe=  118 fps=0.6 q=29.4 size=    1024KiB time=00:00:03.86 bitrate=2169.6kbits/s speed=0.0181x elapsed=0:03:33.74    \nframe=  118 fps=0.6 q=29.4 size=    1024KiB time=00:00:03.86 bitrate=2169.6kbits/s speed=0.018x elapsed=0:03:34.25    \nframe=  118 fps=0.5 q=29.4 size=    1024KiB time=00:00:03.86 bitrate=2169.6kbits/s speed=0.018x elapsed=0:03:34.80    \nframe=  119 fps=0.6 q=34.6 size=    1024KiB time=00:00:03.90 bitrate=2151.0kbits/s speed=0.0181x elapsed=0:03:35.33    \nframe=  119 fps=0.6 q=34.6 size=    1024KiB time=00:00:03.90 bitrate=2151.0kbits/s speed=0.0181x elapsed=0:03:35.87    \nframe=  119 fps=0.5 q=34.6 size=    1024KiB time=00:00:03.90 bitrate=2151.0kbits/s speed=0.018x elapsed=0:03:36.39    \nframe=  119 fps=0.5 q=34.6 size=    1024KiB time=00:00:03.90 bitrate=2151.0kbits/s speed=0.018x elapsed=0:03:36.94    \nframe=  119 fps=0.5 q=34.6 size=    1024KiB time=00:00:03.90 bitrate=2151.0kbits/s speed=0.0179x elapsed=0:03:37.51    \nframe=  119 fps=0.5 q=34.6 size=    1024KiB time=00:00:03.90 bitrate=2151.0kbits/s speed=0.0179x elapsed=0:03:38.04    \nframe=  119 fps=0.5 q=34.6 size=    1024KiB time=00:00:03.90 bitrate=2151.0kbits/s speed=0.0178x elapsed=0:03:38.60    \nframe=  119 fps=0.5 q=34.6 size=    1024KiB time=00:00:03.90 bitrate=2151.0kbits/s speed=0.0178x elapsed=0:03:39.18    \nframe=  119 fps=0.5 q=34.6 size=    1024KiB time=00:00:03.90 bitrate=2151.0kbits/s speed=0.0177x elapsed=0:03:39.75    \nframe=  119 fps=0.5 q=34.6 size=    1024KiB time=00:00:03.90 bitrate=2151.0kbits/s speed=0.0177x elapsed=0:03:40.30    \nframe=  120 fps=0.5 q=37.5 size=    1024KiB time=00:00:03.93 bitrate=2132.8kbits/s speed=0.0178x elapsed=0:03:40.86    \nframe=  120 fps=0.5 q=37.5 size=    1024KiB time=00:00:03.93 bitrate=2132.8kbits/s speed=0.0178x elapsed=0:03:41.43    \nframe=  120 fps=0.5 q=37.5 size=    1024KiB time=00:00:03.93 bitrate=2132.8kbits/s speed=0.0177x elapsed=0:03:41.98    \nframe=  120 fps=0.5 q=37.5 size=    1024KiB time=00:00:03.93 bitrate=2132.8kbits/s speed=0.0177x elapsed=0:03:42.53    \nframe=  120 fps=0.5 q=37.5 size=    1024KiB time=00:00:03.93 bitrate=2132.8kbits/s speed=0.0176x elapsed=0:03:43.07    \nframe=  121 fps=0.5 q=37.2 size=    1024KiB time=00:00:03.96 bitrate=2114.9kbits/s speed=0.0177x elapsed=0:03:43.60    \nframe=  121 fps=0.5 q=37.2 size=    1024KiB time=00:00:03.96 bitrate=2114.9kbits/s speed=0.0177x elapsed=0:03:44.13    \nframe=  121 fps=0.5 q=37.2 size=    1024KiB time=00:00:03.96 bitrate=2114.9kbits/s speed=0.0177x elapsed=0:03:44.65    \nframe=  121 fps=0.5 q=37.2 size=    1024KiB time=00:00:03.96 bitrate=2114.9kbits/s speed=0.0176x elapsed=0:03:45.18    \nframe=  121 fps=0.5 q=37.2 size=    1024KiB time=00:00:03.96 bitrate=2114.9kbits/s speed=0.0176x elapsed=0:03:45.80    \nframe=  121 fps=0.5 q=37.2 size=    1024KiB time=00:00:03.96 bitrate=2114.9kbits/s speed=0.0175x elapsed=0:03:46.36    \nframe=  121 fps=0.5 q=37.2 size=    1024KiB time=00:00:03.96 bitrate=2114.9kbits/s speed=0.0175x elapsed=0:03:46.98    \nframe=  121 fps=0.5 q=37.2 size=    1024KiB time=00:00:03.96 bitrate=2114.9kbits/s speed=0.0174x elapsed=0:03:47.58    \nframe=  121 fps=0.5 q=37.2 size=    1024KiB time=00:00:03.96 bitrate=2114.9kbits/s speed=0.0174x elapsed=0:03:48.21    \nframe=  121 fps=0.5 q=37.2 size=    1024KiB time=00:00:03.96 bitrate=2114.9kbits/s speed=0.0173x elapsed=0:03:48.91    \nframe=  121 fps=0.5 q=37.2 size=    1024KiB time=00:00:03.96 bitrate=2114.9kbits/s speed=0.0173x elapsed=0:03:49.51    \nframe=  121 fps=0.5 q=37.2 size=    1024KiB time=00:00:03.96 bitrate=2114.9kbits/s speed=0.0172x elapsed=0:03:50.09    \nframe=  121 fps=0.5 q=37.2 size=    1024KiB time=00:00:03.96 bitrate=2114.9kbits/s speed=0.0172x elapsed=0:03:50.74    \nframe=  121 fps=0.5 q=37.2 size=    1024KiB time=00:00:03.96 bitrate=2114.9kbits/s speed=0.0171x elapsed=0:03:51.32    \nframe=  122 fps=0.5 q=29.5 size=    1024KiB time=00:00:04.00 bitrate=2097.2kbits/s speed=0.0172x elapsed=0:03:51.92    \nframe=  122 fps=0.5 q=29.5 size=    1024KiB time=00:00:04.00 bitrate=2097.2kbits/s speed=0.0172x elapsed=0:03:52.50    \nframe=  122 fps=0.5 q=29.5 size=    1024KiB time=00:00:04.00 bitrate=2097.2kbits/s speed=0.0172x elapsed=0:03:53.09    \nframe=  123 fps=0.5 q=36.1 size=    1024KiB time=00:00:04.03 bitrate=2079.9kbits/s speed=0.0173x elapsed=0:03:53.66    \nframe=  123 fps=0.5 q=36.1 size=    1024KiB time=00:00:04.03 bitrate=2079.9kbits/s speed=0.0172x elapsed=0:03:54.23    \nframe=  123 fps=0.5 q=36.1 size=    1024KiB time=00:00:04.03 bitrate=2079.9kbits/s speed=0.0172x elapsed=0:03:54.76    \nframe=  123 fps=0.5 q=36.1 size=    1024KiB time=00:00:04.03 bitrate=2079.9kbits/s speed=0.0171x elapsed=0:03:55.33    \nframe=  123 fps=0.5 q=36.1 size=    1024KiB time=00:00:04.03 bitrate=2079.9kbits/s speed=0.0171x elapsed=0:03:55.87    \nframe=  124 fps=0.5 q=37.2 size=    1024KiB time=00:00:04.06 bitrate=2062.9kbits/s speed=0.0172x elapsed=0:03:56.42    \nframe=  124 fps=0.5 q=37.2 size=    1024KiB time=00:00:04.06 bitrate=2062.9kbits/s speed=0.0172x elapsed=0:03:56.96    \nframe=  125 fps=0.5 q=37.3 size=    1024KiB time=00:00:04.10 bitrate=2046.1kbits/s speed=0.0173x elapsed=0:03:57.49    \nframe=  125 fps=0.5 q=37.3 size=    1024KiB time=00:00:04.10 bitrate=2046.1kbits/s speed=0.0172x elapsed=0:03:58.03    \nframe=  126 fps=0.5 q=37.6 size=    1024KiB time=00:00:04.13 bitrate=2029.6kbits/s speed=0.0173x elapsed=0:03:58.55    \nframe=  126 fps=0.5 q=37.6 size=    1024KiB time=00:00:04.13 bitrate=2029.6kbits/s speed=0.0173x elapsed=0:03:59.08    \nframe=  126 fps=0.5 q=37.6 size=    1024KiB time=00:00:04.13 bitrate=2029.6kbits/s speed=0.0172x elapsed=0:03:59.61    \nframe=  127 fps=0.5 q=29.9 size=    1024KiB time=00:00:04.16 bitrate=2013.4kbits/s speed=0.0174x elapsed=0:04:00.14    \nframe=  128 fps=0.5 q=34.6 size=    1280KiB time=00:00:04.20 bitrate=2496.7kbits/s speed=0.0175x elapsed=0:04:00.65    \nframe=  128 fps=0.5 q=34.6 size=    1280KiB time=00:00:04.20 bitrate=2496.7kbits/s speed=0.0174x elapsed=0:04:01.19    \nframe=  129 fps=0.5 q=37.6 size=    1280KiB time=00:00:04.23 bitrate=2477.0kbits/s speed=0.0175x elapsed=0:04:01.80    \nframe=  129 fps=0.5 q=37.6 size=    1280KiB time=00:00:04.23 bitrate=2477.0kbits/s speed=0.0175x elapsed=0:04:02.33    \nframe=  129 fps=0.5 q=37.6 size=    1280KiB time=00:00:04.23 bitrate=2477.0kbits/s speed=0.0174x elapsed=0:04:02.85    \nframe=  129 fps=0.5 q=37.6 size=    1280KiB time=00:00:04.23 bitrate=2477.0kbits/s speed=0.0174x elapsed=0:04:03.38    \nframe=  129 fps=0.5 q=37.6 size=    1280KiB time=00:00:04.23 bitrate=2477.0kbits/s speed=0.0174x elapsed=0:04:03.91    \nframe=  130 fps=0.5 q=37.5 size=    1280KiB time=00:00:04.26 bitrate=2457.7kbits/s speed=0.0175x elapsed=0:04:04.43    \nframe=  130 fps=0.5 q=37.5 size=    1280KiB time=00:00:04.26 bitrate=2457.7kbits/s speed=0.0174x elapsed=0:04:04.98    \nframe=  131 fps=0.5 q=29.3 size=    1280KiB time=00:00:04.30 bitrate=2438.6kbits/s speed=0.0175x elapsed=0:04:05.53    \nframe=  131 fps=0.5 q=29.3 size=    1280KiB time=00:00:04.30 bitrate=2438.6kbits/s speed=0.0175x elapsed=0:04:06.07    \nframe=  132 fps=0.5 q=34.7 size=    1280KiB time=00:00:04.33 bitrate=2419.9kbits/s speed=0.0176x elapsed=0:04:06.58    \nframe=  133 fps=0.5 q=37.7 size=    1280KiB time=00:00:04.36 bitrate=2401.4kbits/s speed=0.0177x elapsed=0:04:07.12    \nframe=  133 fps=0.5 q=37.7 size=    1280KiB time=00:00:04.36 bitrate=2401.4kbits/s speed=0.0176x elapsed=0:04:07.63    \nframe=  134 fps=0.5 q=37.5 size=    1280KiB time=00:00:04.40 bitrate=2383.2kbits/s speed=0.0177x elapsed=0:04:08.15    \nframe=  134 fps=0.5 q=37.5 size=    1280KiB time=00:00:04.40 bitrate=2383.2kbits/s speed=0.0177x elapsed=0:04:08.69    \nframe=  134 fps=0.5 q=37.5 size=    1280KiB time=00:00:04.40 bitrate=2383.2kbits/s speed=0.0177x elapsed=0:04:09.23    \nframe=  134 fps=0.5 q=37.5 size=    1280KiB time=00:00:04.40 bitrate=2383.2kbits/s speed=0.0176x elapsed=0:04:09.76    \nframe=  134 fps=0.5 q=37.5 size=    1280KiB time=00:00:04.40 bitrate=2383.2kbits/s speed=0.0176x elapsed=0:04:10.28    \nframe=  134 fps=0.5 q=37.5 size=    1280KiB time=00:00:04.40 bitrate=2383.2kbits/s speed=0.0175x elapsed=0:04:10.80    \nframe=  134 fps=0.5 q=37.5 size=    1280KiB time=00:00:04.40 bitrate=2383.2kbits/s speed=0.0175x elapsed=0:04:11.33    \nframe=  135 fps=0.5 q=29.7 size=    1280KiB time=00:00:04.43 bitrate=2365.3kbits/s speed=0.0176x elapsed=0:04:11.86    \nframe=  135 fps=0.5 q=29.7 size=    1280KiB time=00:00:04.43 bitrate=2365.3kbits/s speed=0.0176x elapsed=0:04:12.38    \nframe=  136 fps=0.5 q=35.7 size=    1280KiB time=00:00:04.46 bitrate=2347.6kbits/s speed=0.0177x elapsed=0:04:12.91    \nframe=  136 fps=0.5 q=35.7 size=    1280KiB time=00:00:04.46 bitrate=2347.6kbits/s speed=0.0176x elapsed=0:04:13.43    \nframe=  137 fps=0.5 q=37.2 size=    1280KiB time=00:00:04.50 bitrate=2330.2kbits/s speed=0.0177x elapsed=0:04:13.97    \nframe=  137 fps=0.5 q=37.2 size=    1280KiB time=00:00:04.50 bitrate=2330.2kbits/s speed=0.0177x elapsed=0:04:14.51    \nframe=  137 fps=0.5 q=37.2 size=    1280KiB time=00:00:04.50 bitrate=2330.2kbits/s speed=0.0176x elapsed=0:04:15.02    \nframe=  138 fps=0.5 q=36.8 size=    1280KiB time=00:00:04.53 bitrate=2313.1kbits/s speed=0.0177x elapsed=0:04:15.57    \nframe=  138 fps=0.5 q=36.8 size=    1280KiB time=00:00:04.53 bitrate=2313.1kbits/s speed=0.0177x elapsed=0:04:16.11    \nframe=  138 fps=0.5 q=36.8 size=    1280KiB time=00:00:04.53 bitrate=2313.1kbits/s speed=0.0177x elapsed=0:04:16.66    \nframe=  139 fps=0.5 q=37.4 size=    1280KiB time=00:00:04.56 bitrate=2296.2kbits/s speed=0.0178x elapsed=0:04:17.17    \nframe=  139 fps=0.5 q=37.4 size=    1280KiB time=00:00:04.56 bitrate=2296.2kbits/s speed=0.0177x elapsed=0:04:17.69    \nframe=  139 fps=0.5 q=37.4 size=    1280KiB time=00:00:04.56 bitrate=2296.2kbits/s speed=0.0177x elapsed=0:04:18.23    \nframe=  139 fps=0.5 q=37.4 size=    1280KiB time=00:00:04.56 bitrate=2296.2kbits/s speed=0.0176x elapsed=0:04:18.77    \nframe=  140 fps=0.5 q=30.3 size=    1280KiB time=00:00:04.60 bitrate=2279.6kbits/s speed=0.0177x elapsed=0:04:19.30    \nframe=  140 fps=0.5 q=30.3 size=    1280KiB time=00:00:04.60 bitrate=2279.6kbits/s speed=0.0177x elapsed=0:04:19.83    \nframe=  141 fps=0.5 q=34.6 size=    1280KiB time=00:00:04.63 bitrate=2263.2kbits/s speed=0.0178x elapsed=0:04:20.38    \nframe=  141 fps=0.5 q=34.6 size=    1280KiB time=00:00:04.63 bitrate=2263.2kbits/s speed=0.0178x elapsed=0:04:20.91    \nframe=  141 fps=0.5 q=34.6 size=    1280KiB time=00:00:04.63 bitrate=2263.2kbits/s speed=0.0177x elapsed=0:04:21.43    \nframe=  142 fps=0.5 q=37.6 size=    1280KiB time=00:00:04.66 bitrate=2247.0kbits/s speed=0.0178x elapsed=0:04:21.96    \nframe=  143 fps=0.5 q=37.7 size=    1280KiB time=00:00:04.70 bitrate=2231.1kbits/s speed=0.0179x elapsed=0:04:22.48    \nframe=  143 fps=0.5 q=37.7 size=    1280KiB time=00:00:04.70 bitrate=2231.1kbits/s speed=0.0179x elapsed=0:04:23.00    \nframe=  143 fps=0.5 q=37.7 size=    1280KiB time=00:00:04.70 bitrate=2231.1kbits/s speed=0.0178x elapsed=0:04:23.54    \nframe=  143 fps=0.5 q=37.7 size=    1280KiB time=00:00:04.70 bitrate=2231.1kbits/s speed=0.0178x elapsed=0:04:24.07    \nframe=  144 fps=0.5 q=30.6 size=    1280KiB time=00:00:04.73 bitrate=2215.4kbits/s speed=0.0179x elapsed=0:04:24.59    \nframe=  144 fps=0.5 q=30.6 size=    1280KiB time=00:00:04.73 bitrate=2215.4kbits/s speed=0.0179x elapsed=0:04:25.11    \nframe=  145 fps=0.5 q=36.0 size=    1280KiB time=00:00:04.76 bitrate=2199.9kbits/s speed=0.0179x elapsed=0:04:25.64    \nframe=  146 fps=0.5 q=37.4 size=    1280KiB time=00:00:04.80 bitrate=2184.6kbits/s speed=0.018x elapsed=0:04:26.17    \nframe=  146 fps=0.5 q=37.4 size=    1280KiB time=00:00:04.80 bitrate=2184.6kbits/s speed=0.018x elapsed=0:04:26.69    \nframe=  146 fps=0.5 q=37.4 size=    1280KiB time=00:00:04.80 bitrate=2184.6kbits/s speed=0.018x elapsed=0:04:27.23    \nframe=  146 fps=0.5 q=37.4 size=    1280KiB time=00:00:04.80 bitrate=2184.6kbits/s speed=0.0179x elapsed=0:04:27.75    \nframe=  146 fps=0.5 q=37.4 size=    1280KiB time=00:00:04.80 bitrate=2184.6kbits/s speed=0.0179x elapsed=0:04:28.28    \nframe=  147 fps=0.5 q=32.3 size=    1280KiB time=00:00:04.83 bitrate=2169.5kbits/s speed=0.018x elapsed=0:04:28.83    \nframe=  147 fps=0.5 q=32.3 size=    1280KiB time=00:00:04.83 bitrate=2169.5kbits/s speed=0.0179x elapsed=0:04:29.36    \nframe=  147 fps=0.5 q=32.3 size=    1280KiB time=00:00:04.83 bitrate=2169.5kbits/s speed=0.0179x elapsed=0:04:29.90    \nframe=  147 fps=0.5 q=32.3 size=    1280KiB time=00:00:04.83 bitrate=2169.5kbits/s speed=0.0179x elapsed=0:04:30.42    \nframe=  147 fps=0.5 q=32.3 size=    1280KiB time=00:00:04.83 bitrate=2169.5kbits/s speed=0.0178x elapsed=0:04:30.95    \nframe=  148 fps=0.5 q=32.4 size=    1280KiB time=00:00:04.86 bitrate=2154.7kbits/s speed=0.0179x elapsed=0:04:31.48    \nframe=  149 fps=0.5 q=34.4 size=    1280KiB time=00:00:04.90 bitrate=2140.0kbits/s speed=0.018x elapsed=0:04:32.02    \nframe=  149 fps=0.5 q=34.4 size=    1280KiB time=00:00:04.90 bitrate=2140.0kbits/s speed=0.018x elapsed=0:04:32.58    \n[mp4 @ 000001c9cecfa980] Starting second pass: moving the moov atom to the beginning of the file\n[out#0/mp4 @ 000001c9ced01700] video:1497KiB audio:0KiB subtitle:0KiB other streams:0KiB global headers:2KiB muxing overhead: 0.344911%\nframe=  150 fps=0.5 q=33.2 Lsize=    1502KiB time=00:00:04.93 bitrate=2494.8kbits/s speed=0.0181x elapsed=0:04:33.01    \nx265 [info]: frame I:      1, Avg QP:34.14  kb/s: 10337.04\nx265 [info]: frame P:     38, Avg QP:29.78  kb/s: 7273.69 \nx265 [info]: frame B:    111, Avg QP:35.39  kb/s: 730.40  \nx265 [info]: Weighted P-Frames: Y:39.5% UV:34.2%\n\nencoded 150 frames in 272.80s (0.55 fps), 2452.08 kb/s, Avg QP:33.96\n",
  "seconds": 273.5710208415985,
  "probe_out": {}
}